<svg width="625" height="192" viewBox="0 0 625 192" fill="none" xmlns="http://www.w3.org/2000/svg">
<g clip-path="url(#clip0_16_2)">
<path d="M244.336 140.512C239.984 140.512 235.717 140.043 231.536 139.104C227.44 138.165 223.728 136.971 220.4 135.52L221.04 113.12L230.256 113.632L232.432 127.072C233.797 127.584 235.504 128.096 237.552 128.608C239.6 129.12 241.733 129.376 243.952 129.376C246.768 129.376 249.413 128.949 251.888 128.096C254.448 127.157 256.496 125.749 258.032 123.872C259.653 121.995 260.464 119.605 260.464 116.704C260.464 114.4 259.995 112.437 259.056 110.816C258.117 109.195 256.667 107.659 254.704 106.208C252.741 104.757 250.096 103.264 246.768 101.728C243.44 100.107 240.197 98.528 237.04 96.992C233.883 95.456 231.024 93.7067 228.464 91.744C225.989 89.7813 223.984 87.4347 222.448 84.704C220.997 81.888 220.272 78.4747 220.272 74.464C220.272 69.7707 221.509 65.7173 223.984 62.304C226.544 58.8053 229.957 56.1173 234.224 54.24C238.576 52.3627 243.269 51.424 248.304 51.424C252.315 51.424 256.197 51.808 259.952 52.576C263.707 53.2587 267.205 54.1547 270.448 55.264L272.24 77.408H263.28L257.392 63.84C256.027 63.4133 254.533 63.1147 252.912 62.944C251.291 62.688 249.669 62.56 248.048 62.56C245.317 62.56 242.843 63.0293 240.624 63.968C238.491 64.8213 236.784 66.1013 235.504 67.808C234.309 69.4293 233.712 71.3493 233.712 73.568C233.712 75.7867 234.309 77.7067 235.504 79.328C236.699 80.9493 238.235 82.3573 240.112 83.552C242.075 84.7467 244.208 85.856 246.512 86.88C248.816 87.8187 251.035 88.8 253.168 89.824C258.288 92.2133 262.341 94.688 265.328 97.248C268.4 99.7227 270.619 102.411 271.984 105.312C273.349 108.213 274.032 111.456 274.032 115.04C274.032 119.392 273.179 123.189 271.472 126.432C269.851 129.589 267.632 132.235 264.816 134.368C262 136.416 258.8 137.952 255.216 138.976C251.632 140 248.005 140.512 244.336 140.512ZM283.73 140L282.578 133.088L290.002 131.296V56.288H283.09L281.938 48.736L297.81 46.304L301.906 50.528V82.656C303.869 81.2907 306.173 80.1813 308.818 79.328C311.549 78.3893 314.279 77.92 317.01 77.92C320.765 77.92 324.05 78.56 326.866 79.84C329.767 81.12 332.029 83.0827 333.65 85.728C335.271 88.288 336.082 91.5733 336.082 95.584V131.424L343.506 133.088L343.378 140H317.394L317.138 133.088L324.05 131.424V97.888C324.05 94.4747 323.239 91.9573 321.618 90.336C320.082 88.7147 317.821 87.904 314.834 87.904C312.274 87.904 309.799 88.4587 307.41 89.568C305.021 90.6773 303.186 91.8293 301.906 93.024V131.424L309.202 132.96L309.074 140H283.73ZM377.616 140.512C372.325 140.512 367.632 139.147 363.536 136.416C359.44 133.685 356.24 129.931 353.936 125.152C351.632 120.373 350.48 114.955 350.48 108.896C350.48 102.581 351.675 97.12 354.064 92.512C356.453 87.8187 359.653 84.192 363.664 81.632C367.76 79.072 372.411 77.792 377.616 77.792C382.907 77.792 387.6 79.1147 391.696 81.76C395.792 84.32 398.992 87.9467 401.296 92.64C403.6 97.3333 404.752 102.752 404.752 108.896C404.752 115.04 403.6 120.501 401.296 125.28C398.992 130.059 395.792 133.813 391.696 136.544C387.6 139.189 382.907 140.512 377.616 140.512ZM377.616 130.656C380.859 130.656 383.589 129.803 385.808 128.096C388.027 126.304 389.691 123.829 390.8 120.672C391.909 117.515 392.464 113.803 392.464 109.536C392.464 105.355 391.909 101.6 390.8 98.272C389.691 94.944 388.027 92.3413 385.808 90.464C383.589 88.5867 380.859 87.648 377.616 87.648C375.141 87.648 372.965 88.2453 371.088 89.44C369.296 90.5493 367.76 92.1707 366.48 94.304C365.285 96.352 364.389 98.7413 363.792 101.472C363.195 104.117 362.896 106.976 362.896 110.048C362.896 114.229 363.451 117.899 364.56 121.056C365.755 124.128 367.419 126.517 369.552 128.224C371.771 129.845 374.459 130.656 377.616 130.656ZM432.82 140L415.284 86.752H409.524L408.5 78.944L425.908 77.792L441.14 125.92L455.732 86.752H450.228L449.332 78.944L465.332 77.792L467.764 82.4L446.132 140H432.82ZM501.524 140.512C495.977 140.512 491.071 139.275 486.804 136.8C482.537 134.325 479.167 130.784 476.692 126.176C474.303 121.568 473.108 116.107 473.108 109.792C473.108 103.051 474.345 97.3333 476.82 92.64C479.38 87.8613 482.751 84.2347 486.932 81.76C491.113 79.2 495.764 77.92 500.884 77.92C504.383 77.92 507.668 78.56 510.74 79.84C513.897 81.12 516.457 83.04 518.42 85.6C520.383 88.0747 521.364 91.232 521.364 95.072C521.364 99.0827 520.425 102.411 518.548 105.056C516.756 107.701 514.324 109.792 511.252 111.328C508.18 112.864 504.767 113.973 501.012 114.656C497.257 115.253 493.46 115.552 489.62 115.552L485.78 115.424C486.377 119.776 488.041 123.445 490.772 126.432C493.503 129.333 497.641 130.784 503.188 130.784C506.516 130.784 509.417 130.187 511.892 128.992C514.452 127.797 516.585 126.475 518.292 125.024L520.98 134.112C519.785 135.221 518.207 136.288 516.244 137.312C514.281 138.251 512.02 139.019 509.46 139.616C506.985 140.213 504.34 140.512 501.524 140.512ZM485.652 106.208L488.852 106.336C490.815 106.336 492.948 106.208 495.252 105.952C497.641 105.696 499.86 105.227 501.908 104.544C504.041 103.776 505.748 102.667 507.028 101.216C508.393 99.68 509.076 97.7173 509.076 95.328C509.076 92.6827 508.223 90.7627 506.516 89.568C504.809 88.3733 502.932 87.776 500.884 87.776C497.983 87.776 495.423 88.6293 493.204 90.336C490.985 91.9573 489.193 94.176 487.828 96.992C486.548 99.808 485.823 102.88 485.652 106.208ZM531.76 140L530.224 133.088L537.776 131.04V87.776L531.12 88.032L529.84 80.608L545.2 77.792L549.04 83.808C550.832 81.8453 552.88 80.352 555.184 79.328C557.573 78.304 559.877 77.792 562.096 77.792C565.851 77.792 569.093 78.688 571.824 80.48C574.555 82.272 576.56 84.6613 577.84 87.648L565.168 94.048L561.072 87.904C559.792 87.904 558.256 88.3733 556.464 89.312C554.672 90.1653 553.093 91.616 551.728 93.664C550.448 95.712 549.808 98.4427 549.808 101.856V129.504L566.448 133.088V140H531.76Z" fill="#A05ADE"/>
<g filter="url(#filter0_d_16_2)">
<path d="M90 81.15C92.475 81.15 99.9 46.275 100.125 36.6C100.35 32.1 95.625 28.275 90 28.275C84.375 28.275 79.65 31.875 79.875 36.6C80.325 46.275 87.525 81.15 90 81.15Z" fill="#A05ADE"/>
<path d="M75.15 96C75.15 93.525 40.275 86.1 30.6 85.875C26.1 85.65 22.275 90.375 22.275 96C22.275 101.625 25.875 106.35 30.6 106.125C40.275 105.675 75.15 98.475 75.15 96Z" fill="#A05ADE"/>
<path d="M79.65 79.5751L41.175 47.175L73.8 85.65C75.375 83.4 77.4 81.3751 79.65 79.5751Z" fill="#A05ADE"/>
<path d="M100.35 112.425L138.825 145.05L106.425 106.35C104.625 108.6 102.6 110.625 100.35 112.425Z" fill="#A05ADE"/>
<path d="M149.175 85.875C139.5 86.1 104.625 93.525 104.625 96C104.625 98.475 139.5 105.675 149.175 106.125C153.675 106.35 157.5 101.625 157.5 96C157.5 90.375 153.9 85.65 149.175 85.875Z" fill="#A05ADE"/>
<path d="M90 110.85C87.525 110.85 80.325 145.725 79.875 155.4C79.65 159.9 84.375 163.725 90 163.725C95.625 163.725 100.35 160.125 100.125 155.4C99.9 145.725 92.475 110.85 90 110.85Z" fill="#A05ADE"/>
<path d="M106.425 85.65L139.05 47.175L100.35 79.5751C102.6 81.3751 104.625 83.4 106.425 85.65Z" fill="#A05ADE"/>
<path d="M73.5751 106.35L41.175 144.825L79.65 112.2C77.4 110.625 75.3751 108.6 73.5751 106.35Z" fill="#A05ADE"/>
<path d="M90 106.125C95.5919 106.125 100.125 101.592 100.125 96C100.125 90.4081 95.5919 85.875 90 85.875C84.4081 85.875 79.875 90.4081 79.875 96C79.875 101.592 84.4081 106.125 90 106.125Z" fill="#A05ADE"/>
</g>
</g>
<defs>
<filter id="filter0_d_16_2" x="14" y="24" width="152" height="152" filterUnits="userSpaceOnUse" color-interpolation-filters="sRGB">
<feFlood flood-opacity="0" result="BackgroundImageFix"/>
<feColorMatrix in="SourceAlpha" type="matrix" values="0 0 0 0 0 0 0 0 0 0 0 0 0 0 0 0 0 0 127 0" result="hardAlpha"/>
<feOffset dy="4"/>
<feGaussianBlur stdDeviation="2"/>
<feComposite in2="hardAlpha" operator="out"/>
<feColorMatrix type="matrix" values="0 0 0 0 0 0 0 0 0 0 0 0 0 0 0 0 0 0 0.25 0"/>
<feBlend mode="normal" in2="BackgroundImageFix" result="effect1_dropShadow_16_2"/>
<feBlend mode="normal" in="SourceGraphic" in2="effect1_dropShadow_16_2" result="shape"/>
</filter>
<clipPath id="clip0_16_2">
<rect width="625" height="192" fill="white"/>
</clipPath>
</defs>
</svg>
