<svg width="180" height="180" viewBox="0 0 180 180" fill="none" xmlns="http://www.w3.org/2000/svg">
<g filter="url(#filter0_d_27_14)">
<path d="M89.725 74.875C92.2 74.875 99.625 40 99.85 30.325C100.075 25.825 95.35 22 89.725 22C84.1 22 79.375 25.6 79.6 30.325C80.05 40 87.25 74.875 89.725 74.875Z" fill="#A05ADE"/>
<path d="M74.875 89.725C74.875 87.25 40 79.825 30.325 79.6C25.825 79.375 22 84.1 22 89.725C22 95.35 25.6 100.075 30.325 99.85C40 99.4 74.875 92.2 74.875 89.725Z" fill="#A05ADE"/>
<path d="M79.375 73.3L40.9 40.9L73.525 79.375C75.1 77.125 77.125 75.1 79.375 73.3Z" fill="#A05ADE"/>
<path d="M100.075 106.15L138.55 138.775L106.15 100.075C104.35 102.325 102.325 104.35 100.075 106.15Z" fill="#A05ADE"/>
<path d="M148.9 79.6C139.225 79.825 104.35 87.25 104.35 89.725C104.35 92.2 139.225 99.4 148.9 99.85C153.4 100.075 157.225 95.35 157.225 89.725C157.225 84.1 153.625 79.375 148.9 79.6Z" fill="#A05ADE"/>
<path d="M89.725 104.575C87.25 104.575 80.05 139.45 79.6 149.125C79.375 153.625 84.1 157.45 89.725 157.45C95.35 157.45 100.075 153.85 99.85 149.125C99.625 139.45 92.2 104.575 89.725 104.575Z" fill="#A05ADE"/>
<path d="M106.15 79.375L138.775 40.9L100.075 73.3C102.325 75.1 104.35 77.125 106.15 79.375Z" fill="#A05ADE"/>
<path d="M73.3 100.075L40.9 138.55L79.375 105.925C77.125 104.35 75.1 102.325 73.3 100.075Z" fill="#A05ADE"/>
<path d="M89.725 99.85C95.3169 99.85 99.85 95.3169 99.85 89.725C99.85 84.1331 95.3169 79.6 89.725 79.6C84.1331 79.6 79.6 84.1331 79.6 89.725C79.6 95.3169 84.1331 99.85 89.725 99.85Z" fill="#A05ADE"/>
</g>
<defs>
<filter id="filter0_d_27_14" x="14" y="18" width="152" height="152" filterUnits="userSpaceOnUse" color-interpolation-filters="sRGB">
<feFlood flood-opacity="0" result="BackgroundImageFix"/>
<feColorMatrix in="SourceAlpha" type="matrix" values="0 0 0 0 0 0 0 0 0 0 0 0 0 0 0 0 0 0 127 0" result="hardAlpha"/>
<feOffset dy="4"/>
<feGaussianBlur stdDeviation="2"/>
<feComposite in2="hardAlpha" operator="out"/>
<feColorMatrix type="matrix" values="0 0 0 0 0 0 0 0 0 0 0 0 0 0 0 0 0 0 0.25 0"/>
<feBlend mode="normal" in2="BackgroundImageFix" result="effect1_dropShadow_27_14"/>
<feBlend mode="normal" in="SourceGraphic" in2="effect1_dropShadow_27_14" result="shape"/>
</filter>
</defs>
</svg>
