<svg width="428" height="192" viewBox="0 0 428 192" fill="none" xmlns="http://www.w3.org/2000/svg">
<path d="M62.336 140.512C57.984 140.512 53.7173 140.043 49.536 139.104C45.44 138.165 41.728 136.971 38.4 135.52L39.04 113.12L48.256 113.632L50.432 127.072C51.7973 127.584 53.504 128.096 55.552 128.608C57.6 129.12 59.7333 129.376 61.952 129.376C64.768 129.376 67.4133 128.949 69.888 128.096C72.448 127.157 74.496 125.749 76.032 123.872C77.6533 121.995 78.464 119.605 78.464 116.704C78.464 114.4 77.9947 112.437 77.056 110.816C76.1173 109.195 74.6667 107.659 72.704 106.208C70.7413 104.757 68.096 103.264 64.768 101.728C61.44 100.107 58.1973 98.528 55.04 96.992C51.8827 95.456 49.024 93.7067 46.464 91.744C43.9893 89.7813 41.984 87.4347 40.448 84.704C38.9973 81.888 38.272 78.4747 38.272 74.464C38.272 69.7707 39.5093 65.7173 41.984 62.304C44.544 58.8053 47.9573 56.1173 52.224 54.24C56.576 52.3627 61.2693 51.424 66.304 51.424C70.3147 51.424 74.1973 51.808 77.952 52.576C81.7067 53.2587 85.2053 54.1547 88.448 55.264L90.24 77.408H81.28L75.392 63.84C74.0267 63.4133 72.5333 63.1147 70.912 62.944C69.2907 62.688 67.6693 62.56 66.048 62.56C63.3173 62.56 60.8427 63.0293 58.624 63.968C56.4907 64.8213 54.784 66.1013 53.504 67.808C52.3093 69.4293 51.712 71.3493 51.712 73.568C51.712 75.7867 52.3093 77.7067 53.504 79.328C54.6987 80.9493 56.2347 82.3573 58.112 83.552C60.0747 84.7467 62.208 85.856 64.512 86.88C66.816 87.8187 69.0347 88.8 71.168 89.824C76.288 92.2133 80.3413 94.688 83.328 97.248C86.4 99.7227 88.6187 102.411 89.984 105.312C91.3493 108.213 92.032 111.456 92.032 115.04C92.032 119.392 91.1787 123.189 89.472 126.432C87.8507 129.589 85.632 132.235 82.816 134.368C80 136.416 76.8 137.952 73.216 138.976C69.632 140 66.0053 140.512 62.336 140.512ZM101.73 140L100.578 133.088L108.002 131.296V56.288H101.09L99.938 48.736L115.81 46.304L119.906 50.528V82.656C121.869 81.2907 124.173 80.1813 126.818 79.328C129.549 78.3893 132.279 77.92 135.01 77.92C138.765 77.92 142.05 78.56 144.866 79.84C147.767 81.12 150.029 83.0827 151.65 85.728C153.271 88.288 154.082 91.5733 154.082 95.584V131.424L161.506 133.088L161.378 140H135.394L135.138 133.088L142.05 131.424V97.888C142.05 94.4747 141.239 91.9573 139.618 90.336C138.082 88.7147 135.821 87.904 132.834 87.904C130.274 87.904 127.799 88.4587 125.41 89.568C123.021 90.6773 121.186 91.8293 119.906 93.024V131.424L127.202 132.96L127.074 140H101.73ZM195.616 140.512C190.325 140.512 185.632 139.147 181.536 136.416C177.44 133.685 174.24 129.931 171.936 125.152C169.632 120.373 168.48 114.955 168.48 108.896C168.48 102.581 169.675 97.12 172.064 92.512C174.453 87.8187 177.653 84.192 181.664 81.632C185.76 79.072 190.411 77.792 195.616 77.792C200.907 77.792 205.6 79.1147 209.696 81.76C213.792 84.32 216.992 87.9467 219.296 92.64C221.6 97.3333 222.752 102.752 222.752 108.896C222.752 115.04 221.6 120.501 219.296 125.28C216.992 130.059 213.792 133.813 209.696 136.544C205.6 139.189 200.907 140.512 195.616 140.512ZM195.616 130.656C198.859 130.656 201.589 129.803 203.808 128.096C206.027 126.304 207.691 123.829 208.8 120.672C209.909 117.515 210.464 113.803 210.464 109.536C210.464 105.355 209.909 101.6 208.8 98.272C207.691 94.944 206.027 92.3413 203.808 90.464C201.589 88.5867 198.859 87.648 195.616 87.648C193.141 87.648 190.965 88.2453 189.088 89.44C187.296 90.5493 185.76 92.1707 184.48 94.304C183.285 96.352 182.389 98.7413 181.792 101.472C181.195 104.117 180.896 106.976 180.896 110.048C180.896 114.229 181.451 117.899 182.56 121.056C183.755 124.128 185.419 126.517 187.552 128.224C189.771 129.845 192.459 130.656 195.616 130.656ZM250.82 140L233.284 86.752H227.524L226.5 78.944L243.908 77.792L259.14 125.92L273.732 86.752H268.228L267.332 78.944L283.332 77.792L285.764 82.4L264.132 140H250.82ZM319.524 140.512C313.977 140.512 309.071 139.275 304.804 136.8C300.537 134.325 297.167 130.784 294.692 126.176C292.303 121.568 291.108 116.107 291.108 109.792C291.108 103.051 292.345 97.3333 294.82 92.64C297.38 87.8613 300.751 84.2347 304.932 81.76C309.113 79.2 313.764 77.92 318.884 77.92C322.383 77.92 325.668 78.56 328.74 79.84C331.897 81.12 334.457 83.04 336.42 85.6C338.383 88.0747 339.364 91.232 339.364 95.072C339.364 99.0827 338.425 102.411 336.548 105.056C334.756 107.701 332.324 109.792 329.252 111.328C326.18 112.864 322.767 113.973 319.012 114.656C315.257 115.253 311.46 115.552 307.62 115.552L303.78 115.424C304.377 119.776 306.041 123.445 308.772 126.432C311.503 129.333 315.641 130.784 321.188 130.784C324.516 130.784 327.417 130.187 329.892 128.992C332.452 127.797 334.585 126.475 336.292 125.024L338.98 134.112C337.785 135.221 336.207 136.288 334.244 137.312C332.281 138.251 330.02 139.019 327.46 139.616C324.985 140.213 322.34 140.512 319.524 140.512ZM303.652 106.208L306.852 106.336C308.815 106.336 310.948 106.208 313.252 105.952C315.641 105.696 317.86 105.227 319.908 104.544C322.041 103.776 323.748 102.667 325.028 101.216C326.393 99.68 327.076 97.7173 327.076 95.328C327.076 92.6827 326.223 90.7627 324.516 89.568C322.809 88.3733 320.932 87.776 318.884 87.776C315.983 87.776 313.423 88.6293 311.204 90.336C308.985 91.9573 307.193 94.176 305.828 96.992C304.548 99.808 303.823 102.88 303.652 106.208ZM349.76 140L348.224 133.088L355.776 131.04V87.776L349.12 88.032L347.84 80.608L363.2 77.792L367.04 83.808C368.832 81.8453 370.88 80.352 373.184 79.328C375.573 78.304 377.877 77.792 380.096 77.792C383.851 77.792 387.093 78.688 389.824 80.48C392.555 82.272 394.56 84.6613 395.84 87.648L383.168 94.048L379.072 87.904C377.792 87.904 376.256 88.3733 374.464 89.312C372.672 90.1653 371.093 91.616 369.728 93.664C368.448 95.712 367.808 98.4427 367.808 101.856V129.504L384.448 133.088V140H349.76Z" fill="#A05ADE"/>
</svg>
